<svg width="80" height="80" viewBox="0 0 80 80" fill="none" xmlns="http://www.w3.org/2000/svg">
<g clip-path="url(#clip0_3887_579)">
<path d="M31.1469 79.9995C29.732 79.9995 28.5032 79.2181 27.954 77.9623C27.3768 76.6507 27.6747 75.06 28.7173 73.9251C30.9049 71.5344 33.4741 65.7949 32.4222 61.1158L27.9633 63.8972C21.3075 75.274 10.1555 75.8879 7.85625 75.8879C7.4839 75.8879 7.27911 75.8693 7.27911 75.8693L4.94259 75.7019L4.68194 73.367C3.48111 61.8414 10.4441 54.7344 15.9177 51.5809L18.4683 47.4879C17.8632 47.3763 17.2302 47.3205 16.56 47.3205C12.5665 47.3205 8.18206 49.3577 6.07827 51.2833C5.34287 51.9623 4.40268 52.3344 3.45318 52.3344C2.24303 52.3344 1.14459 51.7298 0.520901 50.7158C-0.158643 49.6088 -0.167952 48.2042 0.502284 46.874C7.698 32.6135 20.9817 30.2786 27.4979 30.046C35.5221 17.3391 44.8588 10.6042 56.3273 4.49256L56.5041 4.39954L56.6903 4.33442C57.9284 3.88791 68.9314 -0.00976562 74.4981 -0.00976562C76.3971 -0.00976562 77.7748 0.446048 78.7057 1.37628C79.6086 2.27861 82.3734 5.0414 75.3638 23.0879L75.308 23.246L75.2335 23.3949C69.1641 34.7809 62.4897 44.046 49.9694 52.0181C49.8297 58.1205 47.8004 72.0926 33.139 79.4879C32.4781 79.8228 31.8172 79.9809 31.1655 79.9809L31.1469 79.9995Z" fill="white"/>
<path d="M24.0631 47.0873C17.6959 41.8129 7.92161 45.7943 4.16085 49.2268C3.3696 49.9431 2.31771 49.4129 2.96001 48.1384C11.8872 30.4547 31.1564 32.9477 31.1564 32.9477C31.1564 32.9477 30.4676 33.8687 27.5632 38.9291C24.6589 43.9896 24.0631 47.0873 24.0631 47.0873Z" fill="#94B1C6"/>
<path d="M32.8971 55.9155C38.1752 62.2783 34.191 72.0551 30.7561 75.8039C30.0393 76.5946 30.5699 77.6458 31.8452 77.0039C49.5413 68.0737 47.0372 48.8271 47.0372 48.8271C47.0372 48.8271 46.1156 49.5155 41.0516 52.4178C35.9876 55.3202 32.8971 55.9155 32.8971 55.9155Z" fill="#94B1C6"/>
<path d="M76.7047 3.34821C74.3216 0.966813 57.6123 6.97612 57.6123 6.97612L72.7391 22.0924C72.7391 22.0924 79.0971 5.7296 76.7047 3.34821Z" fill="#F37667"/>
<path d="M76.7047 3.34821C74.3216 0.966813 57.6123 6.97612 57.6123 6.97612L72.7391 22.0924C72.7391 22.0924 79.0971 5.7296 76.7047 3.34821Z" fill="black" fill-opacity="0.1"/>
<path d="M76.6487 3.2921C75.0476 1.6921 60.1069 9.46884 60.1069 9.46884L70.2442 19.5991C70.2442 19.5991 78.2498 4.8921 76.6487 3.2921Z" fill="#F37667"/>
<path d="M27.592 60.818L18.8604 52.0925L22.1929 46.7529L32.9446 57.4971L27.6013 60.8273L27.592 60.818Z" fill="#343F46"/>
<path d="M72.7295 22.0924L65.1614 14.5296L57.6027 6.9668C43.5277 14.4645 31.6125 23.3575 22.1826 46.7435L32.9343 57.4877C56.3274 48.0552 65.2359 36.1575 72.7295 22.0831V22.0924Z" fill="#F5F5F5"/>
<path d="M61.0938 18.604C57.5751 15.0877 51.8594 15.0877 48.3407 18.604C44.822 22.1203 44.822 27.8319 48.3407 31.3482C51.8594 34.8645 57.5751 34.8645 61.0938 31.3482C64.6125 27.8319 64.6125 22.1203 61.0938 18.604ZM50.2583 29.4412C47.7915 26.9761 47.7915 22.9854 50.2583 20.5203C52.7252 18.0552 56.7186 18.0552 59.1855 20.5203C61.6523 22.9854 61.6523 26.9761 59.1855 29.4412C56.7186 31.9063 52.7252 31.9063 50.2676 29.4412H50.2583Z" fill="#94B1C6"/>
<path d="M61.0938 18.604C57.5751 15.0877 51.8594 15.0877 48.3407 18.604C44.822 22.1203 44.822 27.8319 48.3407 31.3482C51.8594 34.8645 57.5751 34.8645 61.0938 31.3482C64.6125 27.8319 64.6125 22.1203 61.0938 18.604ZM50.2583 29.4412C47.7915 26.9761 47.7915 22.9854 50.2583 20.5203C52.7252 18.0552 56.7186 18.0552 59.1855 20.5203C61.6523 22.9854 61.6523 26.9761 59.1855 29.4412C56.7186 31.9063 52.7252 31.9063 50.2676 29.4412H50.2583Z" fill="black" fill-opacity="0.1"/>
<path d="M50.2583 29.4407C47.7915 26.9755 47.7915 22.9849 50.2583 20.5197C52.7252 18.0546 56.7187 18.0546 59.1855 20.5197C61.6523 22.9849 61.6523 26.9755 59.1855 29.4407C56.7187 31.9058 52.7252 31.9058 50.2676 29.4407H50.2583Z" fill="#CEC8C1"/>
<path d="M59.1762 29.4407C56.7093 31.9058 52.7159 31.9058 50.2583 29.4407C47.7915 26.9755 47.7915 22.9849 50.2583 20.5197C52.7252 18.0546 56.7187 18.0546 59.1855 20.5197C61.6523 22.9849 61.6523 26.9755 59.1855 29.4407H59.1762Z" fill="#94B1C6"/>
<path d="M59.1762 29.4407C56.7093 31.9058 52.7159 31.9058 50.2583 29.4407C47.7915 26.9755 47.7915 22.9849 50.2583 20.5197C52.7252 18.0546 56.7187 18.0546 59.1855 20.5197C61.6523 22.9849 61.6523 26.9755 59.1855 29.4407H59.1762Z" fill="white" fill-opacity="0.8"/>
<path d="M48.4336 24.4643L59.5763 28.9946C60.3582 28.055 60.8236 26.9481 60.9726 25.7946L49.6624 21.1992C48.9363 22.1667 48.5267 23.3015 48.4336 24.4643Z" fill="white"/>
<path d="M60.5632 22.5951L52.2039 19.1904C51.4964 19.4974 50.8355 19.9346 50.2583 20.5114C50.2025 20.5672 50.1559 20.623 50.1094 20.6695L61.0286 25.116C61.0472 24.2602 60.8983 23.3951 60.5632 22.5951Z" fill="white"/>
<path d="M19.6421 52.874L26.8006 60.0275C20.5078 73.888 7.42891 73.0787 7.42891 73.0787C5.86503 58.0275 19.6421 52.874 19.6421 52.874Z" fill="#FAA96B"/>
<path d="M18.0127 61.9342C18.0127 61.9342 21.2522 61.2552 24.715 57.9435L21.7362 54.9668C20.1165 56.6877 18.4968 59.0505 18.0127 61.9249V61.9342Z" fill="#FAA96B"/>
<path d="M18.0127 61.9342C18.0127 61.9342 21.2522 61.2552 24.715 57.9435L21.7362 54.9668C20.1165 56.6877 18.4968 59.0505 18.0127 61.9249V61.9342Z" fill="black" fill-opacity="0.1"/>
</g>
<defs>
<clipPath id="clip0_3887_579">
<rect width="80" height="80" fill="white"/>
</clipPath>
</defs>
</svg>
