<svg width="80" height="80" viewBox="0 0 80 80" fill="none" xmlns="http://www.w3.org/2000/svg">
<g clip-path="url(#clip0_3887_600)">
<path d="M28.3128 79.9724C26.9514 79.9724 25.7113 79.3386 24.9011 78.2253L18.6069 69.5667C15.311 71.0658 12.9301 71.3193 12.6545 71.3414C12.5718 71.3469 12.4891 71.3524 12.4065 71.3524C11.5632 71.3524 10.7585 70.9666 10.2349 70.2942C9.66171 69.5556 9.49637 68.5746 9.80501 67.6927C9.83808 67.588 9.87666 67.4833 9.92076 67.3676C9.92076 67.3676 9.92076 67.3565 9.92627 67.351C10.4278 65.9897 10.9349 64.6559 11.4364 63.3882L2.93212 58.516C1.33929 57.6011 0.518069 55.7823 0.887342 53.9855C1.25662 52.1888 2.7282 50.8384 4.55252 50.629L19.2738 48.9314L25.5846 41.298L27.9545 38.4265L33.3613 31.8843C32.8653 31.4599 32.3637 31.041 31.8567 30.6276L31.1347 31.4323C30.5615 32.0716 29.7403 32.4409 28.8805 32.4409C28.1309 32.4409 27.4144 32.1653 26.8577 31.6693L24.6366 29.6741C24.3389 29.4096 24.1019 29.0899 23.9311 28.7427C23.7051 28.7978 23.4736 28.8254 23.2421 28.8254C22.4926 28.8254 21.7761 28.5498 21.2194 28.0537L18.9983 26.0586C18.3975 25.5184 18.0393 24.7744 17.9952 23.9697C17.9511 23.1595 18.2266 22.3824 18.7668 21.7816L18.8219 21.721C18.5298 21.5556 18.2432 21.3958 17.9566 21.236L12.6214 18.3093C11.9545 17.9456 11.3317 17.4991 10.764 16.9976C8.77436 15.2119 7.58938 12.649 7.50119 9.95935C7.42403 7.46814 8.28383 5.05959 9.92627 3.17465C10.4554 2.56838 11.216 2.23217 12.0041 2.23217C12.1915 2.23217 12.3844 2.25422 12.5718 2.2928L51.1195 10.4168L53.8532 7.10438C53.8532 7.10438 53.8863 7.06579 53.9029 7.04926C56.857 3.65966 62.9859 0 67.7313 0C69.5336 0 71.1044 0.53462 72.2618 1.54874C72.2728 1.55977 72.3224 1.60386 72.3224 1.60386C72.3445 1.6259 72.372 1.64795 72.3996 1.67551C72.4547 1.72511 72.5098 1.78023 72.5649 1.84085C74.5932 3.88564 75.0451 7.2587 73.8712 11.5963C72.9838 14.8756 71.2366 18.2818 69.3131 20.4919C69.2911 20.514 69.2745 20.536 69.2525 20.5636L66.0227 24.0248L74.6538 48.0827L79.3 61.0403C79.6417 61.9938 79.4323 63.0575 78.7599 63.8126L78.6882 63.8898C77.1395 65.6149 75.0451 66.7337 72.7689 67.0644C72.6807 67.0809 72.5925 67.0975 72.4988 67.1085C72.1185 67.1526 71.7382 67.1746 71.3579 67.1746C69.1257 67.1746 66.9487 66.4141 65.2125 65.0362C65.174 65.0031 65.1299 64.9755 65.0913 64.9425C65.0913 64.9425 64.9425 64.8157 64.9314 64.8102C64.8763 64.7606 64.8157 64.711 64.7606 64.6614C64.711 64.6173 64.6559 64.5677 64.6007 64.5126C64.5456 64.463 64.496 64.4134 64.4464 64.3638C64.3803 64.2976 64.3141 64.237 64.2535 64.1709C64.248 64.1653 64.1598 64.0716 64.1378 64.0496C64.1157 64.0276 64.0937 64.0055 64.0772 63.9835C63.9835 63.8787 63.8898 63.774 63.8016 63.6693C63.6803 63.526 63.5591 63.3717 63.4268 63.1953L63.3166 63.0465L59.8112 58.4278C59.3758 57.8546 58.9349 57.2869 58.4885 56.7248C57.7223 57.2814 56.7964 57.5846 55.8319 57.5846C54.7186 57.5846 53.6438 57.1767 52.8116 56.4271C51.6321 55.3689 51.1416 53.8202 51.3675 52.3596C50.3424 52.299 49.3724 51.8967 48.6063 51.2132C46.9418 49.7196 46.6442 47.267 47.8016 45.4371C47.4819 45.156 47.1622 44.875 46.8426 44.5939L46.0048 45.4922L43.464 48.2149L41.6011 50.2156L39.0603 52.9383L32.6503 59.8112L32.5401 75.7892C32.5236 78.1481 30.6552 80 28.2907 80L28.3128 79.9724Z" fill="white"/>
<path d="M55.5068 46.1699L52.966 49.0028C52.3156 49.7304 51.1968 49.791 50.4693 49.1406C49.7417 48.4903 49.6811 47.3714 50.337 46.6439L52.8778 43.811C53.203 43.4472 53.6494 43.2488 54.0959 43.2267C54.5478 43.2047 55.0108 43.3535 55.369 43.6787C56.0965 44.329 56.1572 45.4479 55.5013 46.1754L55.5068 46.1699Z" fill="#93B1C6"/>
<path d="M59.7114 51.3828L57.1706 54.2157C56.5202 54.9432 55.4014 55.0039 54.6739 54.3535C53.9463 53.7031 53.8857 52.5843 54.5416 51.8568L57.0824 49.0239C57.4076 48.6601 57.8485 48.4672 58.3004 48.4396C58.7524 48.4176 59.2099 48.5664 59.5736 48.8916C60.2956 49.5419 60.3618 50.6608 59.7114 51.3828Z" fill="#93B1C6"/>
<path d="M76.7321 61.9537L76.6605 62.0308C75.4479 63.3867 73.8496 64.1528 72.2016 64.3402C70.3497 64.5551 68.4317 64.0481 66.9216 62.83C66.9105 62.819 66.894 62.808 66.883 62.7969C66.8444 62.7639 66.8058 62.7308 66.7617 62.6977C66.7176 62.6591 66.6791 62.6261 66.635 62.5875C66.5909 62.5489 66.5523 62.5103 66.5137 62.4718C66.4751 62.4332 66.4366 62.4001 66.398 62.3615C66.3539 62.3174 66.3153 62.2788 66.2712 62.2348C66.2381 62.1962 66.1996 62.1631 66.1665 62.1245C66.161 62.119 66.1555 62.1135 66.15 62.1025C66.0783 62.0198 66.0011 61.9371 65.9295 61.8489C65.8358 61.7387 65.7476 61.6285 65.6594 61.5072L65.5437 61.3529L64.3697 59.7766L62.0163 56.613C60.9636 55.1965 59.8723 53.8076 58.7369 52.4518C58.2795 51.8951 57.8055 51.3495 57.337 50.8093C57.3149 50.7818 57.2984 50.7597 57.2764 50.7377C56.9898 50.4125 56.7032 50.0818 56.4111 49.7621C55.7221 48.9905 55.0222 48.241 54.3001 47.4969C54.1844 47.3701 54.0576 47.2434 53.9364 47.1166C53.2364 46.3946 52.5254 45.6891 51.7979 44.9892C50.2051 43.4514 48.5626 41.9743 46.8596 40.5524L46.8375 40.5358L45.9006 39.7532L45.8179 39.6815L45.7793 39.6485L62.0328 21.0029L62.8706 23.3398L67.1255 35.2007L68.823 39.9296L70.3718 44.2506L72.0693 48.9795L76.7156 61.9371L76.7321 61.9537Z" fill="#93B1C6"/>
<path opacity="0.1" d="M60.7764 25.6162L65.9572 42.8673C66.3596 44.1956 64.651 45.1215 63.7581 44.0523C60.6276 40.31 56.2624 35.8567 52.5752 34.4071L60.7764 25.6162Z" fill="white"/>
<path d="M72.2068 64.3522C70.3549 64.5672 68.4369 64.0546 66.9212 62.8311C66.9102 62.82 66.8937 62.809 66.8827 62.798C66.8716 62.787 66.8606 62.7814 66.8496 62.7704C66.822 62.7484 66.7945 62.7263 66.7669 62.6988C66.7228 62.6602 66.6842 62.6271 66.6401 62.5885C66.5961 62.55 66.5575 62.5114 66.5189 62.4728C66.4803 62.4342 66.4417 62.4012 66.4032 62.3626C66.3591 62.3185 66.3205 62.2799 66.2764 62.2358C66.2433 62.1972 66.2047 62.1642 66.1717 62.1256C66.1662 62.1201 66.1606 62.1146 66.1551 62.1035C66.0835 62.0209 66.0063 61.9382 65.9347 61.85C65.863 61.7618 65.7914 61.6681 65.7197 61.5799L65.5544 61.3595L62.0435 56.7298C60.9577 55.3023 59.8389 53.9079 58.676 52.5465C57.9099 51.6426 57.1217 50.7553 56.317 49.8844C55.6171 49.1239 54.9061 48.3798 54.1841 47.6412C53.3573 46.798 52.5141 45.9768 51.6598 45.1666C50.0614 43.6619 48.4135 42.2069 46.7104 40.8124L46.6498 40.7628L45.7845 40.0574C45.7404 40.0023 45.6963 39.9526 45.6577 39.903L45.8396 39.6881L48.4631 36.6182C48.8103 36.8993 49.2016 37.2189 49.6315 37.5717C53.1865 40.5038 59.1885 45.7508 63.1954 50.8435C69.0652 58.3006 72.0745 64.0711 72.2123 64.3357C72.2123 64.3412 72.2123 64.3467 72.2123 64.3467L72.2068 64.3522Z" fill="#93B1C6"/>
<path d="M31.2725 22.0521L33.7335 24.261C33.7786 24.3015 33.7824 24.3716 33.7419 24.4167L29.6443 28.9819C29.2431 29.4289 28.5504 29.4663 28.1033 29.065L27.1025 28.1668C26.6554 27.7655 26.618 27.0728 27.0193 26.6257L31.1168 22.0605C31.1573 22.0154 31.2273 22.0116 31.2725 22.0521Z" fill="#93B1C6"/>
<path d="M25.6338 18.4262L28.0952 20.6346C28.1403 20.6751 28.1441 20.7452 28.1036 20.7903L24.0069 25.3562C23.6057 25.8033 22.913 25.8408 22.4659 25.4396L21.4649 24.5415C21.0177 24.1403 20.9802 23.4476 21.3814 23.0004L25.4781 18.4346C25.5186 18.3895 25.5887 18.3857 25.6338 18.4262Z" fill="#93B1C6"/>
<path d="M38.3381 32.5606L38.3106 32.5881L38.1617 32.4558L37.2744 31.6512C31.8014 26.6853 25.7663 22.3752 19.2902 18.8203L13.9551 15.8937C13.459 15.6236 13.0126 15.3039 12.6158 14.9457C11.1387 13.6229 10.3285 11.771 10.2678 9.87506C10.2127 8.16097 10.7749 6.40831 12.015 4.98633L54.5641 13.9536L41.1766 29.3143L38.3381 32.5716V32.5606Z" fill="#93B1C6"/>
<path d="M21.8647 51.4108L4.87818 53.3674C3.4562 53.5327 3.0704 55.4122 4.31049 56.1232L17.8964 63.911C17.8964 63.911 22.212 57.2144 21.8592 51.4053L21.8647 51.4108Z" fill="#93B1C6"/>
<path d="M27.1335 76.6041L19.4724 66.0605L19.2024 65.6912L17.9292 63.9385C17.9292 63.9385 20.2771 62.0371 23.4407 60.5104C25.4139 59.5569 27.7012 58.7522 29.9333 58.6475V58.6971L29.8176 75.7498C29.8066 77.1773 27.9767 77.767 27.139 76.6096L27.1335 76.6041Z" fill="#93B1C6"/>
<path d="M67.2574 18.667L62.8813 23.3573L60.7759 25.617L52.5747 34.4079L49.615 37.5771L47.3883 39.9691L46.8482 40.5533L46.6388 40.7738L45.8782 41.5895L44.0153 43.5847L41.4745 46.3074L39.6116 48.308L37.0707 51.0307L29.9223 58.6918L28.7152 59.987C28.1365 60.6484 27.2547 61.3704 26.1965 62.1145C24.9123 63.0128 23.3635 63.9443 21.7652 64.8261C21.7156 64.8537 21.666 64.8812 21.6164 64.9088C21.5943 64.9198 21.5778 64.9253 21.5778 64.9253C20.8723 65.3167 20.1613 65.6914 19.4669 66.0552C19.0645 66.2646 18.6677 66.4686 18.2764 66.667C18.1717 66.7221 18.0669 66.7717 17.9622 66.8268C14.7325 68.3866 12.4121 68.596 12.4121 68.596C12.4397 68.5134 12.4727 68.4252 12.5058 68.3315C12.8916 67.2788 13.4979 65.6584 14.2309 63.8341C14.4459 63.3049 14.6663 62.7538 14.8978 62.1971C15.223 61.409 15.5702 60.6043 15.923 59.8051C16.7938 57.8375 17.7307 55.914 18.6291 54.3873C19.1362 53.533 19.6322 52.8 20.1007 52.2653L20.696 51.5488L27.7121 43.0611L30.0876 40.1895L37.1975 31.5916L39.9808 28.224L42.4555 25.2312L49.9622 16.1482L52.1944 13.4476L55.9919 8.85094C59.3153 5.03695 67.3732 0.914319 70.4652 3.61497L70.4982 3.64253C70.4982 3.64253 70.5203 3.65907 70.5313 3.6756C70.5588 3.69765 70.5864 3.7252 70.6085 3.74725C73.4745 6.58569 70.5258 14.9136 67.2574 18.667Z" fill="white"/>
<path d="M67.2574 18.667L62.8813 23.3573L60.7759 25.617L52.5747 34.4079L49.615 37.5771L47.3883 39.9691L46.8482 40.5533L46.6388 40.7738L45.8782 41.5895L44.0153 43.5847L41.4745 46.3074L39.6116 48.308L37.0707 51.0307L29.9223 58.6918L28.7152 59.987C28.1365 60.6484 27.2547 61.3704 26.1965 62.1145C24.9123 63.0128 23.3635 63.9443 21.7652 64.8261C21.7156 64.8537 21.666 64.8812 21.6164 64.9088C21.5943 64.9198 21.5778 64.9253 21.5778 64.9253C20.8723 65.3167 20.1613 65.6914 19.4669 66.0552C19.0645 66.2646 18.6677 66.4686 18.2764 66.667C18.1717 66.7221 18.0669 66.7717 17.9622 66.8268C14.7325 68.3866 12.4121 68.596 12.4121 68.596C12.4397 68.5134 12.4727 68.4252 12.5058 68.3315C12.8916 67.2788 13.4979 65.6584 14.2309 63.8341C14.4459 63.3049 14.6663 62.7538 14.8978 62.1971C15.223 61.409 15.5702 60.6043 15.923 59.8051C16.7938 57.8375 17.7307 55.914 18.6291 54.3873C19.1362 53.533 19.6322 52.8 20.1007 52.2653L20.696 51.5488L27.7121 43.0611L30.0876 40.1895L37.1975 31.5916L39.9808 28.224L42.4555 25.2312L49.9622 16.1482L52.1944 13.4476L55.9919 8.85094C59.3153 5.03695 67.3732 0.914319 70.4652 3.61497L70.4982 3.64253C70.4982 3.64253 70.5203 3.65907 70.5313 3.6756C70.5588 3.69765 70.5864 3.7252 70.6085 3.74725C73.4745 6.58569 70.5258 14.9136 67.2574 18.667Z" fill="#343F46" fill-opacity="0.05"/>
<path d="M69.4289 10.8506L63.4434 5.63118C64.2591 5.09105 65.1078 4.73831 65.9897 4.58398L70.1178 8.18302C70.0793 9.07589 69.8257 9.96325 69.4289 10.8506Z" fill="#93B1C6"/>
<path opacity="0.1" d="M49.984 16.1477L32.518 12.8573C31.1511 12.5982 30.4181 14.4005 31.5755 15.1721C35.632 17.8783 40.6199 21.7143 42.4553 25.2252L49.9785 16.1477H49.984Z" fill="white"/>
<path opacity="0.1" d="M18.6402 54.3864L12.0539 55.1966C11.1004 55.3123 10.8193 56.5634 11.6295 57.076L15.9341 59.8042C15.9341 59.8042 17.4167 56.7949 18.6402 54.3809V54.3864Z" fill="white"/>
<path opacity="0.1" d="M26.8906 61.6621L26.6812 68.3256C26.6702 69.2846 25.4576 69.7034 24.8569 68.9484L21.583 64.936C21.583 64.936 24.6364 63.3376 26.8906 61.6621Z" fill="white"/>
<path opacity="0.07" d="M76.6605 62.031C75.4479 63.3868 73.8496 64.1529 72.2016 64.3403C72.2016 64.3458 72.2016 64.3513 72.2016 64.3513C70.3498 64.5663 68.4317 64.0537 66.9161 62.8302C66.9051 62.8191 66.8885 62.8081 66.8775 62.7971C66.8665 62.7861 66.8554 62.7806 66.8444 62.7695C66.8169 62.7475 66.7893 62.7254 66.7618 62.6979C66.7177 62.6593 66.6791 62.6262 66.635 62.5877C66.5909 62.5491 66.5523 62.5105 66.5137 62.4719C66.4752 62.4333 66.4366 62.4003 66.398 62.3617C66.3539 62.3176 66.3153 62.279 66.2712 62.2349C66.2382 62.1963 66.1996 62.1633 66.1665 62.1247C66.161 62.1192 66.1555 62.1137 66.15 62.1026C66.0783 62.02 66.0012 61.9373 65.9295 61.8491C65.8358 61.7389 65.7476 61.6286 65.6594 61.5074L65.5437 61.3531L62.0329 56.7234C60.9471 55.2959 59.8282 53.9015 58.6653 52.5401L57.1772 54.1991C56.5268 54.9266 55.408 54.9872 54.6805 54.3369C53.9529 53.6865 53.8923 52.5677 54.5482 51.8401L56.3119 49.878C55.6119 49.1175 54.9009 48.3734 54.1789 47.6348L52.9719 48.9797C52.3215 49.7072 51.2027 49.7678 50.4752 49.1174C49.7476 48.4671 49.687 47.3482 50.3429 46.6207L51.6546 45.1547C50.0563 43.65 48.4083 42.195 46.7053 40.8005L46.6446 40.7509L45.884 41.5666L44.0211 43.5618L41.4803 46.2845L39.6174 48.2852L37.0766 51.0079L29.9281 58.6689L29.8124 75.7216C29.8014 77.1491 27.9715 77.7389 27.1338 76.5815L19.4727 66.0379C19.0704 66.2473 18.6736 66.4512 18.2822 66.6497C18.1775 66.7048 18.0728 66.7544 17.9681 66.8095C14.7383 68.3693 12.418 68.5787 12.418 68.5787C12.4455 68.496 12.4786 68.4078 12.5117 68.3141L70.5372 3.6748C70.5647 3.69685 70.5923 3.72441 70.6143 3.74646C73.4803 6.5849 70.5316 14.9128 67.2633 18.6662L62.8871 23.3565L67.142 35.2173L68.8396 39.9462L70.3883 44.2673L72.0859 48.9962L76.7321 61.9538L76.6605 62.031Z" fill="#343F46"/>
</g>
<defs>
<clipPath id="clip0_3887_600">
<rect width="80" height="80" fill="white"/>
</clipPath>
</defs>
</svg>
