<svg width="80" height="80" viewBox="0 0 80 80" fill="none" xmlns="http://www.w3.org/2000/svg">
<g clip-path="url(#clip0_3887_531)">
<path d="M67.4693 69.0502C67.4693 69.0502 67.4293 68.9802 67.4093 68.9402C67.0793 68.3902 66.6393 67.9302 66.1293 67.5702C66.2393 67.4002 66.3393 67.2302 66.4193 67.0402C66.9393 65.8402 66.7293 64.3602 65.8893 63.3502C54.1293 49.0702 46.9193 41.0302 43.1993 38.0502L43.0893 37.9702C42.3593 37.3902 40.4193 35.8502 39.2693 33.2202C38.8493 32.2602 38.5693 31.2402 38.4393 30.1802C38.2093 27.2102 37.7193 24.6402 36.9993 22.4902C37.3093 22.3002 37.6193 22.0802 37.9293 21.8102C38.7093 21.1202 39.3493 20.2502 39.7693 19.2902C40.0093 18.7402 40.0993 18.1502 40.0493 17.5802C40.3993 17.1102 40.7193 16.6002 40.9993 16.0402C41.2593 15.5202 41.4793 14.9702 41.6493 14.4102C42.0793 13.0002 41.5693 11.4702 40.3993 10.6002C40.4593 10.1302 40.4793 9.64024 40.4693 9.14024C40.4493 8.61024 40.3793 8.07024 40.2693 7.55024C39.9793 6.26024 38.9893 5.24024 37.6993 4.91023C37.4193 4.84024 37.1293 4.81024 36.8493 4.81024C36.2393 4.81024 35.6493 4.97024 35.1193 5.27024C34.7993 3.83024 33.5993 2.73023 32.1093 2.55023C31.9693 2.53023 31.8393 2.53023 31.6993 2.53023C31.4293 2.53023 31.1593 2.56023 30.8893 2.62023C30.6793 2.22023 30.4493 1.83023 30.1893 1.47023C29.5193 0.530234 28.4493 -0.00976562 27.3393 -0.00976562C27.0493 -0.00976562 26.7593 0.0302344 26.4693 0.100234C25.0593 0.460234 24.0293 1.65023 23.8593 3.09023C23.7093 4.43023 23.4393 5.76024 23.0693 7.05024C22.6993 8.36024 22.1893 9.63024 21.5993 10.8602C20.4693 11.9502 19.1693 13.5902 18.3693 15.8902C17.8593 17.3602 17.6293 18.9202 17.6693 20.4802C17.6493 20.5202 17.6293 20.5602 17.6093 20.6002C17.2493 20.9502 16.9293 21.3002 16.6793 21.6002C16.5893 21.7002 16.5093 21.8002 16.4393 21.8702C16.3193 21.9902 16.2093 22.1202 16.1093 22.2602C14.1493 24.9902 13.8793 28.5502 15.3993 31.5502C15.8793 32.4902 16.7493 33.1602 17.7693 33.3802C17.4193 34.6202 17.0793 35.6302 16.8093 36.4102C16.6493 36.8802 16.5093 37.2802 16.4193 37.6102C15.3993 40.9902 15.6293 44.8602 17.0993 49.1002C17.7093 50.8702 18.5293 52.5402 19.5193 54.0702C20.7793 56.0302 22.2793 57.8302 23.9593 59.4302C24.8493 60.2802 25.8093 61.0502 26.7993 61.7802C26.7393 61.8302 26.6793 61.8702 26.6193 61.9202C24.9293 61.5502 23.2093 61.2002 21.4993 60.9002C20.2093 60.6702 18.9393 60.4602 17.6893 60.2702C17.4793 60.2402 17.2593 60.2202 17.0493 60.2202C15.9193 60.2202 14.8493 60.6502 14.0293 61.4402C13.0693 62.3602 12.4193 63.5102 12.1493 64.7602C11.6193 67.1702 12.5193 69.7202 14.4793 71.4102C15.0893 71.9402 15.8293 72.2802 16.6293 72.4002C17.1093 72.4702 17.5993 72.5002 18.0893 72.5102C18.3393 72.5102 18.5893 72.5102 18.7493 72.4802C21.4093 73.5303 24.1693 74.3002 26.9593 74.7502C27.8293 74.8902 28.6993 75.0002 29.5693 75.0902C29.6393 75.0902 29.6993 75.1002 29.7693 75.1002C30.7793 75.1402 31.8193 75.1602 32.8893 75.1602H33.0693C34.2693 75.1602 35.4893 75.1302 36.6793 75.0702H36.8693C37.0993 75.0702 37.3293 75.0902 37.5393 75.1302C38.8193 75.3702 40.1093 75.6602 41.3693 76.0002C42.8693 76.4102 44.3593 76.8902 45.8093 77.4302C46.5893 77.7202 47.3893 77.9102 48.1893 77.9802C48.9493 78.0502 49.7493 78.1102 50.5793 78.1502C51.4093 78.1902 52.2093 78.2102 52.9793 78.2102H53.3893C54.8493 78.8302 56.3793 79.3102 57.9193 79.6602C58.3893 79.7702 58.8593 79.8602 59.3093 79.9302C59.5993 79.9802 59.8993 80.0002 60.1893 80.0002C61.0893 80.0002 61.9893 79.7702 62.7693 79.3202C64.0393 78.6002 65.1393 77.6502 66.0293 76.5102C66.8493 75.4603 67.4693 74.2802 67.8793 72.9702C68.2793 71.6502 68.1193 70.2302 67.4593 69.0602L67.4693 69.0502Z" fill="white"/>
<path d="M24.4999 12.97C25.1699 11.65 25.8799 9.99 26.4399 8.03C26.9199 6.35 27.1899 4.82 27.3399 3.5C27.5099 3.74 27.6599 3.99 27.7899 4.24C29.7799 8.09 27.1799 13 26.1699 14.71C27.2799 13.54 28.5599 11.99 29.7499 10.01C30.6099 8.58 31.2399 7.22 31.7099 6.03C31.8099 6.77 31.8699 7.61 31.8099 8.53C31.5899 11.86 30.0399 14.32 29.0799 15.57C30.4799 14.52 31.9999 13.28 33.5399 11.8C34.7899 10.6 35.8899 9.42 36.8499 8.31C36.9199 8.64 36.9599 8.96 36.9699 9.27C37.0899 12.73 33.7599 15.3 32.7799 16.01C33.5399 15.88 34.5499 15.63 35.6499 15.11C36.8199 14.57 37.6899 13.92 38.2899 13.4C38.1799 13.75 38.0499 14.11 37.8599 14.47C36.6899 16.8 34.4499 17.85 33.3499 18.26C33.7999 18.29 34.3499 18.29 34.9699 18.22C35.5799 18.15 36.1099 18.03 36.5499 17.9C36.4099 18.21 36.1399 18.73 35.6099 19.19C34.7999 19.9 33.8999 20.04 33.5499 20.08C33.5599 20.16 33.6299 20.58 33.3599 20.96C33.1499 21.26 32.8699 21.36 32.7699 21.39C31.1799 21.6 29.5899 21.81 27.9999 22.02L22.6099 17.59L24.4899 12.97H24.4999Z" fill="#FCE159"/>
<path d="M63.1402 65.7202C59.4202 66.0402 54.8502 66.1302 49.6802 65.5802C46.1802 65.2102 43.0102 64.6002 40.2202 63.9202C40.3102 64.1802 40.3802 64.5302 40.3402 64.9402C40.3002 65.3502 40.1902 65.8502 40.1902 65.8502C39.5702 65.6002 38.9102 65.3302 38.2302 65.1402C38.2702 65.1102 38.3302 65.0502 38.3602 64.9602C38.4102 64.8202 38.3602 64.6502 38.2302 64.5302C38.0702 64.4102 37.8702 64.2202 37.6802 63.9402C37.4602 63.6202 37.3502 63.3302 37.3002 63.1202C37.1002 63.0602 36.9002 63.0002 36.7102 62.9402C36.0202 62.7202 35.1902 62.4302 34.2502 62.0402C34.2502 62.1902 34.2502 62.3402 34.2502 62.4902C34.2002 63.4502 33.9302 64.2402 33.6602 64.8302C33.0902 64.7602 32.5602 64.4502 31.9802 64.3902C32.0102 64.2302 32.0302 64.0502 32.0302 63.8402C32.0302 63.5902 32.0102 63.3602 31.9802 63.1802C31.8302 62.9302 31.6502 62.6002 31.5202 62.1702C31.3502 61.6302 31.3202 61.1502 31.3302 60.8202C31.2802 60.7102 31.2402 60.6002 31.2002 60.5002C29.6502 59.5902 28.0102 58.4202 26.4002 56.8902C24.7102 55.2802 23.4402 53.6302 22.4902 52.1602C21.6402 50.8402 20.9502 49.4202 20.4402 47.9402C18.9502 43.6502 19.1802 40.6602 19.8002 38.6102C20.1902 37.3102 21.2402 34.7302 22.0602 30.6002C22.2902 29.4602 22.4302 28.5102 22.5202 27.8602C21.8602 26.1402 21.1902 24.4202 20.5302 22.7002C20.5602 22.5702 20.6402 22.2702 20.9102 22.0102C21.1602 21.7702 21.2802 21.4302 21.2502 21.1002C21.1402 20.1502 21.1302 18.6802 21.7002 17.0302C22.4702 14.8102 23.8702 13.4902 24.5102 12.9502C24.7102 13.0902 25.0402 13.3202 25.2302 13.7302C25.4502 14.1902 25.4602 14.9202 25.4302 15.3602C25.4302 15.4302 25.5102 15.4602 25.5502 15.4102C25.6102 15.3402 25.6802 15.2702 25.7702 15.2102C26.0002 15.0602 26.2202 15.0402 26.3102 15.0402C26.4502 15.1902 26.6002 15.3902 26.7102 15.6602C26.9602 16.2702 26.8402 16.8602 26.7102 17.2402C26.6802 17.3302 26.7802 17.4002 26.8602 17.3502C27.1002 17.1802 27.4402 16.9902 27.8702 16.8802C28.3602 16.7602 28.7702 16.8002 29.0202 16.8402C29.0402 17.1002 29.0302 17.4702 28.9302 17.8902C28.8402 18.2702 28.7102 18.5802 28.5802 18.8202C28.5302 18.9002 28.6102 19.0002 28.7002 18.9702C29.1602 18.8302 29.5602 18.8202 29.9102 18.8702C32.5402 19.2802 34.4802 24.0102 34.9702 30.5402C35.0802 31.4402 35.3402 32.9402 36.0802 34.6302C37.6402 38.2002 40.2802 40.2002 41.0202 40.7902C44.0402 43.2002 50.4102 50.0502 63.2002 65.5802C63.2402 65.6302 63.2102 65.7102 63.1502 65.7102L63.1402 65.7202Z" fill="#ECE3E5"/>
<path d="M17.1799 63.7307C16.9199 63.6907 16.6499 63.7707 16.4599 63.9607C16.1399 64.2707 15.7299 64.7907 15.5599 65.5207C15.3099 66.6707 15.7799 67.9207 16.7599 68.7707C16.8599 68.8607 16.9899 68.9208 17.1299 68.9408C17.4099 68.9808 17.7299 69.0108 18.0899 69.0108C18.2599 69.0108 18.4199 69.0107 18.5699 68.9907C19.0699 68.9507 19.5699 69.0408 20.0399 69.2208C22.1899 70.0708 24.6899 70.8308 27.5299 71.2908C28.3499 71.4208 29.1399 71.5207 29.9099 71.6007C30.9299 71.6407 31.9899 71.6608 33.0799 71.6608C34.2699 71.6608 35.4299 71.6308 36.5399 71.5708C37.0999 71.5408 37.6599 71.5708 38.1999 71.6808C39.4899 71.9208 40.8599 72.2308 42.2999 72.6208C44.0299 73.0908 45.6099 73.6108 47.0499 74.1508C47.5299 74.3308 48.0199 74.4507 48.5299 74.4907C49.2399 74.5607 49.9799 74.6108 50.7499 74.6508C51.6299 74.6908 52.4699 74.7107 53.2799 74.7007C53.7799 74.7007 54.2799 74.7908 54.7399 74.9808C55.8899 75.4608 57.2099 75.9008 58.6899 76.2308C59.1099 76.3208 59.5099 76.4008 59.8999 76.4708C60.2899 76.5408 60.6999 76.4707 61.0499 76.2707C61.6999 75.9007 62.5399 75.3007 63.2799 74.3507C63.9899 73.4507 64.3499 72.5607 64.5399 71.9507C64.5699 71.8407 64.7299 71.2908 64.4099 70.7608C64.2299 70.4608 63.9399 70.2608 63.5999 70.2208C63.2599 70.1808 62.8699 70.1707 62.4099 70.2407C62.1199 70.2807 61.8499 70.3508 61.6099 70.4308C60.6399 70.7508 59.5999 70.8207 58.6099 70.6007C55.6399 69.9307 52.5999 69.2808 49.4899 68.6608C46.2299 68.0108 43.0399 67.4108 39.8999 66.8708C37.7099 66.5608 35.5199 66.2507 33.3299 65.9507C32.0999 65.8707 30.8599 65.8007 29.6099 65.7407C28.9899 65.7107 28.3699 65.6707 27.7599 65.6407C27.3199 65.6207 26.8899 65.5607 26.4699 65.4607C24.6799 65.0607 22.8299 64.6907 20.8999 64.3407C19.6399 64.1107 18.3999 63.9107 17.1899 63.7307H17.1799Z" fill="#D38237"/>
<path d="M22.6097 27.9302C19.1797 29.2802 20.6897 26.7002 18.5397 29.9602C17.6197 28.1502 17.7697 25.9702 18.9697 24.3002C19.6597 23.5802 21.3297 21.2502 22.1997 22.8902C22.7997 23.8902 23.8597 27.2402 22.6097 27.9302Z" fill="#29323F"/>
<path d="M25.5992 24.3292C26.1294 24.3292 26.5592 23.8994 26.5592 23.3692C26.5592 22.839 26.1294 22.4092 25.5992 22.4092C25.069 22.4092 24.6392 22.839 24.6392 23.3692C24.6392 23.8994 25.069 24.3292 25.5992 24.3292Z" fill="#29323F"/>
<path d="M28.2096 28.2502C29.2699 28.2502 30.1296 27.3905 30.1296 26.3302C30.1296 25.2698 29.2699 24.4102 28.2096 24.4102C27.1492 24.4102 26.2896 25.2698 26.2896 26.3302C26.2896 27.3905 27.1492 28.2502 28.2096 28.2502Z" fill="#FCE159"/>
<path d="M33.6495 64.8297L32.9595 65.2496C32.6295 64.9596 32.2995 64.6796 31.9795 64.3896C32.5595 64.4496 33.0795 64.7497 33.6595 64.8297H33.6495Z" fill="#ECE3E5"/>
<path d="M40.1895 65.8506H39.0895C38.7995 65.6206 38.5195 65.3806 38.2295 65.1406C38.9095 65.3406 39.5595 65.6006 40.1895 65.8506Z" fill="#ECE3E5"/>
<path d="M33.4995 66.0007C32.3495 65.9207 30.5295 65.8607 30.1895 67.2707C30.1095 69.8207 29.2695 66.7107 29.4295 66.0007C28.9095 66.3107 28.8895 66.9507 28.7795 67.4507C28.3495 66.9907 28.3995 66.3007 28.4195 65.7107C28.2695 64.0307 30.4695 64.1607 31.6195 64.4007C31.7395 64.3907 31.8595 64.3907 31.9795 64.4007C32.5595 64.4607 33.0795 64.7607 33.6595 64.8407C33.5995 65.1907 33.7695 65.6507 33.5095 66.0007H33.4995Z" fill="#29323F"/>
<path d="M40.1895 65.8496C40.1595 66.2196 40.0695 66.5396 39.8995 66.8696C39.8695 66.8696 39.7095 66.9996 39.5495 66.9896C37.5695 66.7396 36.7295 66.7096 36.1295 68.8996C35.8195 68.1296 35.7895 67.3996 35.8395 66.5796L35.4295 66.9696L34.9695 67.8896C34.5095 66.6796 34.9095 64.5196 36.5695 64.8396C37.1295 64.8696 37.6995 64.9796 38.2495 65.1396C38.9295 65.3396 39.5795 65.5996 40.2095 65.8496H40.1895Z" fill="#29323F"/>
</g>
<defs>
<clipPath id="clip0_3887_531">
<rect width="56.11" height="80" fill="white" transform="translate(12)"/>
</clipPath>
</defs>
</svg>
