<svg width="80" height="80" viewBox="0 0 80 80" fill="none" xmlns="http://www.w3.org/2000/svg">
<g clip-path="url(#clip0_3887_561)">
<path d="M57.1169 20.2326H52.8843V8.10233C52.8843 3.63721 49.2471 0 44.782 0H34.8378C30.3727 0 26.7355 3.63721 26.7355 8.10233V20.2326H25.2936H22.5029C18.6983 20.2326 15.6006 23.3302 15.6006 27.1349V69.6372C15.6006 73.1442 18.2331 76.0558 21.6285 76.4837C22.5029 78.5488 24.5587 80.0093 26.9401 80.0093C29.3215 80.0093 31.3401 78.5767 32.2238 76.5395H47.8703C48.7634 78.5767 50.7913 80.0093 53.1541 80.0093C55.5169 80.0093 57.6378 78.5209 58.4936 76.4093C61.6378 75.7674 64.0192 72.9767 64.0192 69.6465V27.1349C64.0192 23.3302 60.9215 20.2326 57.1169 20.2326ZM44.9122 8.10233V20.2326H34.7262V8.10233C34.7262 8.03721 34.782 7.9814 34.8471 7.9814H44.7913C44.8564 7.9814 44.9122 8.03721 44.9122 8.10233Z" fill="white"/>
<path d="M56.1209 74.2409C56.1209 75.8781 54.7907 77.2083 53.1535 77.2083C51.5163 77.2083 50.186 75.8781 50.186 74.2409C50.186 72.6037 51.5163 71.2734 53.1535 71.2734C54.7907 71.2734 56.1209 72.6037 56.1209 74.2409Z" fill="#343F46"/>
<path d="M54.9309 74.2411C54.9309 75.2178 54.1402 76.0085 53.1634 76.0085C52.1867 76.0085 51.396 75.2178 51.396 74.2411C51.396 73.2643 52.1867 72.4736 53.1634 72.4736C54.1402 72.4736 54.9309 73.2643 54.9309 74.2411Z" fill="#93B1C6"/>
<path d="M54.9309 74.2411C54.9309 75.2178 54.1402 76.0085 53.1634 76.0085C52.1867 76.0085 51.396 75.2178 51.396 74.2411C51.396 73.2643 52.1867 72.4736 53.1634 72.4736C54.1402 72.4736 54.9309 73.2643 54.9309 74.2411Z" fill="#F37667"/>
<path d="M29.9075 74.2409C29.9075 75.8781 28.5773 77.2083 26.9401 77.2083C25.3029 77.2083 23.9727 75.8781 23.9727 74.2409C23.9727 72.6037 25.3029 71.2734 26.9401 71.2734C28.5773 71.2734 29.9075 72.6037 29.9075 74.2409Z" fill="#343F46"/>
<path d="M28.7072 74.2411C28.7072 75.2178 27.9165 76.0085 26.9398 76.0085C25.9631 76.0085 25.1724 75.2178 25.1724 74.2411C25.1724 73.2643 25.9631 72.4736 26.9398 72.4736C27.9165 72.4736 28.7072 73.2643 28.7072 74.2411Z" fill="#93B1C6"/>
<path d="M28.7072 74.2411C28.7072 75.2178 27.9165 76.0085 26.9398 76.0085C25.9631 76.0085 25.1724 75.2178 25.1724 74.2411C25.1724 73.2643 25.9631 72.4736 26.9398 72.4736C27.9165 72.4736 28.7072 73.2643 28.7072 74.2411Z" fill="#F37667"/>
<path d="M44.7817 34.1575H34.8375C31.9073 34.1575 29.5259 31.7761 29.5259 28.8459V8.10167C29.5259 5.17143 31.9073 2.79004 34.8375 2.79004H44.7817C47.7119 2.79004 50.0933 5.17143 50.0933 8.10167V28.8459C50.0933 31.7761 47.7119 34.1575 44.7817 34.1575ZM34.8468 5.19004C33.2375 5.19004 31.9352 6.49236 31.9352 8.10167V28.8459C31.9352 30.4552 33.2375 31.7575 34.8468 31.7575H44.791C46.4003 31.7575 47.7026 30.4552 47.7026 28.8459V8.10167C47.7026 6.50167 46.4003 5.19004 44.791 5.19004H34.8468Z" fill="#343F46"/>
<path d="M22.5027 23.022H57.1167C59.3865 23.022 61.2283 24.8639 61.2283 27.1336V69.6266C61.2283 71.8964 59.3865 73.7383 57.1167 73.7383H22.5027C20.233 73.7383 18.3911 71.8964 18.3911 69.6266V27.1243C18.3911 24.8546 20.233 23.0127 22.5027 23.0127V23.022Z" fill="#93B1C6"/>
<path d="M33.3029 23.1908C33.3029 23.6652 32.9215 24.0466 32.4471 24.0466H29.0145C28.5401 24.0466 28.1587 23.6652 28.1587 23.1908C28.1587 22.7164 28.5401 22.335 29.0145 22.335H32.4471C32.9215 22.335 33.3029 22.7164 33.3029 23.1908Z" fill="#FAA96B"/>
<path d="M51.4704 23.1908C51.4704 23.6652 51.089 24.0466 50.6145 24.0466H47.182C46.7076 24.0466 46.3262 23.6652 46.3262 23.1908C46.3262 22.7164 46.7076 22.335 47.182 22.335H50.6145C51.089 22.335 51.4704 22.7164 51.4704 23.1908Z" fill="#FAA96B"/>
<path fill-rule="evenodd" clip-rule="evenodd" d="M53.7405 27.9209C54.2465 27.9209 54.6568 28.3311 54.6568 28.8372V68.4093C54.6568 68.9153 54.2465 69.3256 53.7405 69.3256C53.2345 69.3256 52.8242 68.9153 52.8242 68.4093V28.8372C52.8242 28.3311 53.2345 27.9209 53.7405 27.9209Z" fill="#93B1C6"/>
<path fill-rule="evenodd" clip-rule="evenodd" d="M53.7405 27.9209C54.2465 27.9209 54.6568 28.3311 54.6568 28.8372V68.4093C54.6568 68.9153 54.2465 69.3256 53.7405 69.3256C53.2345 69.3256 52.8242 68.9153 52.8242 68.4093V28.8372C52.8242 28.3311 53.2345 27.9209 53.7405 27.9209Z" fill="black" fill-opacity="0.1"/>
<path fill-rule="evenodd" clip-rule="evenodd" d="M44.4373 27.9209C44.9433 27.9209 45.3536 28.3311 45.3536 28.8372V68.4093C45.3536 68.9153 44.9433 69.3256 44.4373 69.3256C43.9312 69.3256 43.521 68.9153 43.521 68.4093V28.8372C43.521 28.3311 43.9312 27.9209 44.4373 27.9209Z" fill="#93B1C6"/>
<path fill-rule="evenodd" clip-rule="evenodd" d="M44.4373 27.9209C44.9433 27.9209 45.3536 28.3311 45.3536 28.8372V68.4093C45.3536 68.9153 44.9433 69.3256 44.4373 69.3256C43.9312 69.3256 43.521 68.9153 43.521 68.4093V28.8372C43.521 28.3311 43.9312 27.9209 44.4373 27.9209Z" fill="black" fill-opacity="0.1"/>
<path fill-rule="evenodd" clip-rule="evenodd" d="M35.135 27.9209C35.6411 27.9209 36.0513 28.3311 36.0513 28.8372V68.4093C36.0513 68.9153 35.6411 69.3256 35.135 69.3256C34.629 69.3256 34.2188 68.9153 34.2188 68.4093V28.8372C34.2188 28.3311 34.629 27.9209 35.135 27.9209Z" fill="#93B1C6"/>
<path fill-rule="evenodd" clip-rule="evenodd" d="M35.135 27.9209C35.6411 27.9209 36.0513 28.3311 36.0513 28.8372V68.4093C36.0513 68.9153 35.6411 69.3256 35.135 69.3256C34.629 69.3256 34.2188 68.9153 34.2188 68.4093V28.8372C34.2188 28.3311 34.629 27.9209 35.135 27.9209Z" fill="black" fill-opacity="0.1"/>
<path fill-rule="evenodd" clip-rule="evenodd" d="M25.8328 27.9209C26.3388 27.9209 26.7491 28.3311 26.7491 28.8372V68.4093C26.7491 68.9153 26.3388 69.3256 25.8328 69.3256C25.3267 69.3256 24.9165 68.9153 24.9165 68.4093V28.8372C24.9165 28.3311 25.3267 27.9209 25.8328 27.9209Z" fill="#93B1C6"/>
<path fill-rule="evenodd" clip-rule="evenodd" d="M25.8328 27.9209C26.3388 27.9209 26.7491 28.3311 26.7491 28.8372V68.4093C26.7491 68.9153 26.3388 69.3256 25.8328 69.3256C25.3267 69.3256 24.9165 68.9153 24.9165 68.4093V28.8372C24.9165 28.3311 25.3267 27.9209 25.8328 27.9209Z" fill="black" fill-opacity="0.1"/>
</g>
<defs>
<clipPath id="clip0_3887_561">
<rect width="48.4186" height="80" fill="white" transform="translate(15.6001)"/>
</clipPath>
</defs>
</svg>
