<svg width="80" height="80" viewBox="0 0 80 80" fill="none" xmlns="http://www.w3.org/2000/svg">
<path d="M65.8943 34.658C68.5926 26.5113 67.206 16.9148 62.3675 10.2122C59.0018 5.55196 52.3969 0 40.0273 0C27.6576 0 21.0528 5.55196 17.6871 10.2122C12.8486 16.9148 11.462 26.5113 14.1603 34.658C17.6353 45.1463 27.0075 54.1963 29.8784 56.7911L31.7195 63.5455C31.7195 63.5455 31.6907 63.5685 31.6792 63.5858C30.9716 64.2646 30.5861 65.1794 30.5861 66.1575C30.5861 66.6695 30.6954 67.1701 30.8968 67.6361C30.9716 70.4955 31.5872 73.516 32.617 76.0129C33.5145 78.182 35.5685 79.6721 37.9849 79.9022C38.6522 79.9655 39.3369 80 40.0215 80C40.7062 80 41.3793 79.9712 42.0525 79.9079C44.4746 79.6778 46.5286 78.1877 47.4261 76.0187C48.4502 73.5275 49.0658 70.5128 49.1463 67.6534C49.3534 67.1873 49.4628 66.6868 49.4628 66.169C49.4628 65.1909 49.0773 64.2762 48.3696 63.5973C48.3581 63.5858 48.3409 63.5685 48.3293 63.557L50.1647 56.8141C53.0298 54.2251 62.4135 45.1636 65.8885 34.6753L65.8943 34.658Z" fill="white"/>
<path fill-rule="evenodd" clip-rule="evenodd" d="M35.7296 52.5041C36.003 52.4651 36.2563 52.655 36.2953 52.9284L38.2953 66.9284C38.3344 67.2017 38.1444 67.455 37.8711 67.4941C37.5977 67.5331 37.3444 67.3432 37.3054 67.0698L35.3054 53.0698C35.2663 52.7964 35.4563 52.5432 35.7296 52.5041Z" fill="#93B1C6"/>
<path fill-rule="evenodd" clip-rule="evenodd" d="M32.6956 52.5102C32.9656 52.4524 33.2314 52.6243 33.2893 52.8944L36.2893 66.8944C36.3472 67.1644 36.1752 67.4302 35.9052 67.488C35.6351 67.5459 35.3694 67.3739 35.3115 67.1039L32.3115 53.1039C32.2536 52.8339 32.4256 52.5681 32.6956 52.5102Z" fill="#93B1C6"/>
<path fill-rule="evenodd" clip-rule="evenodd" d="M39.7998 52.499C40.0759 52.499 40.2998 52.7229 40.2998 52.999V66.999C40.2998 67.2752 40.0759 67.499 39.7998 67.499C39.5237 67.499 39.2998 67.2752 39.2998 66.999V52.999C39.2998 52.7229 39.5237 52.499 39.7998 52.499Z" fill="#93B1C6"/>
<path fill-rule="evenodd" clip-rule="evenodd" d="M43.8711 52.5041C44.1444 52.5432 44.3344 52.7964 44.2953 53.0698L42.2953 67.0698C42.2563 67.3432 42.003 67.5331 41.7296 67.4941C41.4563 67.455 41.2663 67.2017 41.3054 66.9284L43.3054 52.9284C43.3444 52.655 43.5977 52.4651 43.8711 52.5041Z" fill="#93B1C6"/>
<path fill-rule="evenodd" clip-rule="evenodd" d="M46.9052 52.5102C47.1752 52.5681 47.3472 52.8339 47.2893 53.1039L44.2893 67.1039C44.2314 67.3739 43.9656 67.5459 43.6956 67.488C43.4256 67.4302 43.2536 67.1644 43.3115 66.8944L46.3115 52.8944C46.3694 52.6243 46.6351 52.4524 46.9052 52.5102Z" fill="#93B1C6"/>
<path d="M40.0281 56.6923C44.5848 56.6923 47.2888 55.1849 47.2888 55.1849C47.2888 55.1849 59.0602 45.3755 62.9321 33.679C66.8041 21.9825 61.8102 3.12305 40.0281 3.12305C18.246 3.12305 13.2521 21.9882 17.1241 33.679C20.9961 45.3755 32.7674 55.1849 32.7674 55.1849C32.7674 55.1849 35.4715 56.6923 40.0281 56.6923Z" fill="#FF7665"/>
<path d="M37.359 56.5077C36.5132 54.2122 33.4179 45.2772 32.2903 34.8982C30.9843 22.8335 32.67 3.37001 40.0285 3.36426C26.3586 3.36426 23.2288 22.8278 25.6567 34.8982C27.6013 44.5581 32.716 52.9579 34.6837 55.9324C35.3913 56.1453 36.2946 56.3639 37.359 56.5077Z" fill="#FAA96A"/>
<path d="M42.6984 56.5077C43.7627 56.3639 44.6602 56.151 45.3737 55.9324C47.3413 52.9579 52.456 44.5523 54.4006 34.8982C56.8285 22.8278 53.6987 3.36426 40.0288 3.36426C47.3873 3.36426 49.0788 22.8278 47.767 34.8982C46.6394 45.2772 43.5441 54.2122 42.6984 56.5077Z" fill="#FAA96A"/>
<path d="M40.0276 76.7819C40.6317 76.7819 41.2128 76.7531 41.7593 76.7013C42.9618 76.5863 44.0204 75.8613 44.4692 74.7855C45.3954 72.5417 45.9535 69.7398 45.9535 67.0415V67.03C45.9535 66.4489 45.3609 66.0289 44.7798 66.19C43.4911 66.5409 41.8974 66.8113 40.0333 66.8113C38.1693 66.8113 36.5698 66.5409 35.2811 66.19C34.6942 66.0289 34.1074 66.4489 34.1074 67.03V67.0415C34.1074 69.7398 34.6712 72.5417 35.5918 74.7855C36.0348 75.8671 37.0934 76.5863 38.3016 76.7013C38.8482 76.7531 39.4292 76.7819 40.0333 76.7819H40.0276Z" fill="#FAA96A"/>
<path d="M40.0276 76.7819C40.6317 76.7819 41.2128 76.7531 41.7593 76.7013C42.9618 76.5863 44.0204 75.8613 44.4692 74.7855C45.3954 72.5417 45.9535 69.7398 45.9535 67.0415V67.03C45.9535 66.4489 45.3609 66.0289 44.7798 66.19C43.4911 66.5409 41.8974 66.8113 40.0333 66.8113C38.1693 66.8113 36.5698 66.5409 35.2811 66.19C34.6942 66.0289 34.1074 66.4489 34.1074 67.03V67.0415C34.1074 69.7398 34.6712 72.5417 35.5918 74.7855C36.0348 75.8671 37.0934 76.5863 38.3016 76.7013C38.8482 76.7531 39.4292 76.7819 40.0333 76.7819H40.0276Z" fill="black" fill-opacity="0.1"/>
<path d="M46.2591 66.1555C46.2591 67.0472 43.4687 67.7664 40.0282 67.7664C36.5877 67.7664 33.7974 67.0472 33.7974 66.1555C33.7974 65.2637 36.5877 65.7067 40.0282 65.7067C43.4687 65.7067 46.2591 65.2695 46.2591 66.1555Z" fill="#FAA96A"/>
<path d="M46.2591 66.1555C46.2591 67.0472 43.4687 67.7664 40.0282 67.7664C36.5877 67.7664 33.7974 67.0472 33.7974 66.1555C33.7974 65.2637 36.5877 65.7067 40.0282 65.7067C43.4687 65.7067 46.2591 65.2695 46.2591 66.1555Z" fill="black" fill-opacity="0.2"/>
</svg>
